<svg xmlns="http://www.w3.org/2000/svg" xmlns:xlink="http://www.w3.org/1999/xlink" viewBox="0 0 500.03 61.02"><defs><linearGradient id="u_gradient_61" x1="0.24" y1="22.58" x2="135.92" y2="22.58" gradientUnits="userSpaceOnUse"><stop offset="0" stop-color="#61b3a8"/><stop offset="0.18" stop-color="#8ec6ac"/><stop offset="0.42" stop-color="#aa95b5"/><stop offset="1" stop-color="#c66583"/></linearGradient><linearGradient id="u_gradient_61-2" x1="2.38" y1="31.55" x2="134.95" y2="31.55" xlink:href="#u_gradient_61"/><linearGradient id="u_gradient_57" x1="1.06" y1="21.43" x2="122.3" y2="21.43" gradientUnits="userSpaceOnUse"><stop offset="0" stop-color="#61b3a8"/><stop offset="0.23" stop-color="#8ec6ac"/><stop offset="0.44" stop-color="#e7b58b"/><stop offset="0.68" stop-color="#aa95b5"/><stop offset="1" stop-color="#c66583"/></linearGradient><linearGradient id="u_gradient_61-3" x1="2.38" y1="34.56" x2="134.95" y2="34.56" xlink:href="#u_gradient_61"/><linearGradient id="u_gradient_7" x1="98.74" y1="23.52" x2="101.81" y2="6.84" gradientUnits="userSpaceOnUse"><stop offset="0" stop-color="#fff" stop-opacity="0"/><stop offset="0.5" stop-color="#fff" stop-opacity="0.5"/><stop offset="1" stop-color="#fff" stop-opacity="0"/></linearGradient><linearGradient id="u_gradient_2" x1="41.23" y1="49.11" x2="73.06" y2="40.99" gradientUnits="userSpaceOnUse"><stop offset="0" stop-color="#fff" stop-opacity="0.04"/><stop offset="0.05" stop-color="#e4dfe5" stop-opacity="0.15"/><stop offset="0.14" stop-color="#b6aab9" stop-opacity="0.35"/><stop offset="0.25" stop-color="#96849a" stop-opacity="0.49"/><stop offset="0.36" stop-color="#826d87" stop-opacity="0.57"/><stop offset="0.5" stop-color="#7c6681" stop-opacity="0.6"/><stop offset="0.64" stop-color="#826d87" stop-opacity="0.57"/><stop offset="0.75" stop-color="#96849a" stop-opacity="0.49"/><stop offset="0.86" stop-color="#b6aab9" stop-opacity="0.35"/><stop offset="0.95" stop-color="#e4dfe5" stop-opacity="0.15"/><stop offset="1" stop-color="#fff" stop-opacity="0.04"/></linearGradient><linearGradient id="u_gradient_33" x1="9.54" y1="22.29" x2="10.2" y2="37.22" gradientUnits="userSpaceOnUse"><stop offset="0" stop-color="#629188"/><stop offset="0.05" stop-color="#759e96" stop-opacity="0.88"/><stop offset="0.2" stop-color="#b0c8c3" stop-opacity="0.5"/><stop offset="0.33" stop-color="#dbe6e4" stop-opacity="0.23"/><stop offset="0.44" stop-color="#f5f8f8" stop-opacity="0.06"/><stop offset="0.5" stop-color="#fff" stop-opacity="0"/><stop offset="0.56" stop-color="#f5f8f8" stop-opacity="0.06"/><stop offset="0.67" stop-color="#dbe6e4" stop-opacity="0.23"/><stop offset="0.8" stop-color="#b0c8c3" stop-opacity="0.5"/><stop offset="0.95" stop-color="#759e96" stop-opacity="0.88"/><stop offset="1" stop-color="#629188"/></linearGradient><linearGradient id="u_gradient_11" x1="14.5" y1="21.61" x2="19.99" y2="34.02" gradientUnits="userSpaceOnUse"><stop offset="0" stop-color="#fff" stop-opacity="0.5"/><stop offset="0.22" stop-color="#fff" stop-opacity="0.49"/><stop offset="0.39" stop-color="#fff" stop-opacity="0.45"/><stop offset="0.55" stop-color="#fff" stop-opacity="0.38"/><stop offset="0.7" stop-color="#fff" stop-opacity="0.29"/><stop offset="0.84" stop-color="#fff" stop-opacity="0.17"/><stop offset="0.98" stop-color="#fff" stop-opacity="0.02"/><stop offset="1" stop-color="#fff" stop-opacity="0"/></linearGradient><linearGradient id="u_gradient_543" x1="97.77" y1="26.69" x2="93.49" y2="23.23" gradientUnits="userSpaceOnUse"><stop offset="0" stop-color="#fff" stop-opacity="0"/><stop offset="0.01" stop-color="#fefcfd" stop-opacity="0.01"/><stop offset="0.18" stop-color="#e0bfc8" stop-opacity="0.19"/><stop offset="0.35" stop-color="#c9909e" stop-opacity="0.32"/><stop offset="0.54" stop-color="#b86e81" stop-opacity="0.42"/><stop offset="0.74" stop-color="#ae5970" stop-opacity="0.48"/><stop offset="1" stop-color="#ab536a" stop-opacity="0.5"/></linearGradient><linearGradient id="u_gradient_543-2" x1="87.41" y1="10.37" x2="93.83" y2="12.84" xlink:href="#u_gradient_543"/><linearGradient id="u_gradient_557" x1="34.28" y1="38.21" x2="42.57" y2="31.52" gradientUnits="userSpaceOnUse"><stop offset="0" stop-color="#7d9f9b"/><stop offset="0.02" stop-color="#80a19d" stop-opacity="0.98"/><stop offset="0.36" stop-color="#b6c9c7" stop-opacity="0.56"/><stop offset="0.65" stop-color="#dee6e5" stop-opacity="0.26"/><stop offset="0.88" stop-color="#f6f8f8" stop-opacity="0.07"/><stop offset="1" stop-color="#fff" stop-opacity="0"/></linearGradient><linearGradient id="u_gradient_12" x1="23.84" y1="41.1" x2="19.94" y2="42.47" gradientUnits="userSpaceOnUse"><stop offset="0" stop-color="#7d9f9b"/><stop offset="0.02" stop-color="#80a19d" stop-opacity="0.98"/><stop offset="0.34" stop-color="#b6c9c7" stop-opacity="0.56"/><stop offset="0.61" stop-color="#dee6e5" stop-opacity="0.26"/><stop offset="0.81" stop-color="#f6f8f8" stop-opacity="0.07"/><stop offset="0.93" stop-color="#fff" stop-opacity="0"/></linearGradient><linearGradient id="u_gradient_547" x1="120.85" y1="12.44" x2="120.85" y2="32.72" gradientUnits="userSpaceOnUse"><stop offset="0" stop-color="#a94e68" stop-opacity="0.8"/><stop offset="0.02" stop-color="#ae5871" stop-opacity="0.75"/><stop offset="0.18" stop-color="#d19fad" stop-opacity="0.43"/><stop offset="0.31" stop-color="#ead3da" stop-opacity="0.2"/><stop offset="0.42" stop-color="#f9f3f5" stop-opacity="0.05"/><stop offset="0.49" stop-color="#fff" stop-opacity="0"/><stop offset="0.56" stop-color="#f9f3f5" stop-opacity="0.05"/><stop offset="0.67" stop-color="#ead3da" stop-opacity="0.2"/><stop offset="0.81" stop-color="#d19fad" stop-opacity="0.43"/><stop offset="0.98" stop-color="#ae5871" stop-opacity="0.75"/><stop offset="1" stop-color="#a94e68" stop-opacity="0.8"/></linearGradient><linearGradient id="u_gradient_168" x1="54.33" y1="22.51" x2="78.04" y2="30.08" gradientUnits="userSpaceOnUse"><stop offset="0" stop-color="#fff" stop-opacity="0.04"/><stop offset="0.06" stop-color="#fff" stop-opacity="0.17"/><stop offset="0.14" stop-color="#fff" stop-opacity="0.29"/><stop offset="0.22" stop-color="#fff" stop-opacity="0.38"/><stop offset="0.3" stop-color="#fff" stop-opacity="0.45"/><stop offset="0.39" stop-color="#fff" stop-opacity="0.49"/><stop offset="0.5" stop-color="#fff" stop-opacity="0.5"/><stop offset="0.61" stop-color="#fff" stop-opacity="0.49"/><stop offset="0.7" stop-color="#fff" stop-opacity="0.45"/><stop offset="0.77" stop-color="#fff" stop-opacity="0.38"/><stop offset="0.85" stop-color="#fff" stop-opacity="0.29"/><stop offset="0.92" stop-color="#fff" stop-opacity="0.17"/><stop offset="0.99" stop-color="#fff" stop-opacity="0.02"/><stop offset="1" stop-color="#fff" stop-opacity="0"/></linearGradient></defs><title>UNIVERSE</title><g style="isolation:isolate"><g id="logo"><path d="M323.53,21.86h27.11a1.06,1.06,0,0,0,1.06-1.06V19.69a1.07,1.07,0,0,0-1.06-1.06H323a9.76,9.76,0,0,0-9.76,9.76v4.43A9.76,9.76,0,0,0,323,42.58h27.64a1.06,1.06,0,0,0,1.06-1.06V40.41a1.07,1.07,0,0,0-1.06-1.06H323.53a6.5,6.5,0,0,1-6.5-6.5v-.63h29.83a1.05,1.05,0,0,0,1.05-1.06V30A1.05,1.05,0,0,0,346.86,29H317v-.61A6.5,6.5,0,0,1,323.53,21.86Z" transform="translate(0.03 -0.11)" style="fill:#fff"/><path d="M471.83,21.86h27.11A1.05,1.05,0,0,0,500,20.8V19.69a1.06,1.06,0,0,0-1.06-1.06H471.3a9.76,9.76,0,0,0-9.76,9.76v4.43a9.76,9.76,0,0,0,9.76,9.76h27.64A1.05,1.05,0,0,0,500,41.52V40.41a1.06,1.06,0,0,0-1.06-1.06H471.83a6.5,6.5,0,0,1-6.5-6.5v-.63h29.83a1.06,1.06,0,0,0,1.06-1.06V30A1.06,1.06,0,0,0,495.16,29H465.33v-.61A6.5,6.5,0,0,1,471.83,21.86Z" transform="translate(0.03 -0.11)" style="fill:#fff"/><path d="M444.06,29h-24.6a3.57,3.57,0,1,1,0-7.13h23.75a3.57,3.57,0,0,1,3.48,2.75,1,1,0,0,0,1,.82h1.77a1.09,1.09,0,0,0,1.07-1.26,6.53,6.53,0,0,0-6.44-5.54H418.61a6.51,6.51,0,0,0-6.5,6.51v.58a6.5,6.5,0,0,0,6.5,6.5h24.6a3.57,3.57,0,1,1,0,7.13h-23.8a3.57,3.57,0,0,1-3.48-2.74,1,1,0,0,0-1-.82H413.2A1.09,1.09,0,0,0,412.12,37a6.52,6.52,0,0,0,6.44,5.54h25.5a6.51,6.51,0,0,0,6.51-6.5V35.5A6.52,6.52,0,0,0,444.06,29Z" transform="translate(0.03 -0.11)" style="fill:#fff"/><path d="M287.91,37.9,272.86,19.24a1.6,1.6,0,0,0-1.26-.61h-2.17a.79.79,0,0,0-.61,1.27l17.68,22h0a1.8,1.8,0,0,0,1.41.67,1.77,1.77,0,0,0,1.4-.67L307,19.9a.79.79,0,0,0,.09-.82.77.77,0,0,0-.7-.45h-2.17a1.57,1.57,0,0,0-1.26.61Z" transform="translate(0.03 -0.11)" style="fill:#fff"/><path d="M241.3,19.69V39.31L211.82,18.92a1.65,1.65,0,0,0-.93-.29h-3.2a1.07,1.07,0,0,0-1.06,1.06V41.52a1.06,1.06,0,0,0,1.06,1.06h1.67a1.06,1.06,0,0,0,1.06-1.06V21.88l29.52,20.41a1.63,1.63,0,0,0,.93.29H244a1.05,1.05,0,0,0,1.06-1.06V19.69A1.06,1.06,0,0,0,244,18.63h-1.67A1.07,1.07,0,0,0,241.3,19.69Z" transform="translate(0.03 -0.11)" style="fill:#fff"/><path d="M394.63,32.22a6.5,6.5,0,0,0,6.5-6.5v-.58a6.51,6.51,0,0,0-6.5-6.51h-30.9a1.06,1.06,0,0,0-1.05,1.06V41.52a1.05,1.05,0,0,0,1.05,1.06h1.67a1.05,1.05,0,0,0,1.06-1.06v-9.3h20.7l3.48,4.31L395,42a1.62,1.62,0,0,0,1.26.6h2.17a.77.77,0,0,0,.7-.44.76.76,0,0,0-.09-.82l-7.31-9.1h2.87ZM366.46,29V21.86h27.32a3.57,3.57,0,1,1,0,7.13Z" transform="translate(0.03 -0.11)" style="fill:#fff"/><rect x="256.1" y="18.52" width="3.78" height="23.95" rx="0.78" ry="0.78" style="fill:#fff"/><path d="M191.87,32.88a6.5,6.5,0,0,1-6.5,6.5H167.49a6.5,6.5,0,0,1-6.51-6.5V19.69a1.06,1.06,0,0,0-1-1.06h-1.67a1.06,1.06,0,0,0-1.06,1.06V32.85A9.76,9.76,0,0,0,167,42.61h19a9.75,9.75,0,0,0,9.75-9.76V19.69a1.06,1.06,0,0,0-1.05-1.06h-1.67a1.06,1.06,0,0,0-1.06,1.06Z" transform="translate(0.03 -0.11)" style="fill:#fff"/><path d="M118.22,35.19c6.18,0,17.31-3.61,17.31-11,0-6.55-9.24-14.24-20.84-14.24a22,22,0,0,0-8.2,1.47h0C118.39,8,127,18.26,126.5,23.89c-.32,3.88-4.57,10-14.54,10a17.09,17.09,0,0,1-5.79-1.07l.29.15v0A28.51,28.51,0,0,0,118.22,35.19Z" transform="translate(0.03 -0.11)" style="fill:url(#u_gradient_61)"/><path d="M1.37,30.13c0,3.82,4.74,11,17.52,11-6.52,0-10.48-5.5-11.23-10.89C6.78,23.94,10.21,22,12.8,22.4A7.87,7.87,0,0,0,11,22C5.42,21.43,1.37,26.3,1.37,30.13Z" transform="translate(0.03 -0.11)" style="fill:url(#u_gradient_61-2)"/><path d="M106.46,32.94A18.54,18.54,0,0,1,97,23.39C92.86,14.33,92.7.11,81.12.11c-9.75,0-21.56,13.43-34.63,25.54C36.23,35.14,27,41.16,18.89,41.16v1.58c17.24,0,28.78-11,36-17.09s15.53-14.31,23.55-14c6.41.28,9.85,9.5,13.46,14.21a25.33,25.33,0,0,0,14.54,9.62Z" transform="translate(0.03 -0.11)" style="fill:url(#u_gradient_57)"/><path d="M106.46,32.94a28.51,28.51,0,0,0,11.76,2.25c6.18,0,17.31-3.61,17.31-11,0-6.55-9.24-14.24-20.84-14.24-16.56,0-21.5,14.82-33.52,30.46-8.34,10.85-18.49,20.7-32.42,20.7C35.69,61.13,29.84,51,25,41c-4.63-9.59-7.5-18.35-14-19-5.61-.56-9.66,4.31-9.66,8.14s4.74,11,17.52,11v1.58C5.76,42.74,0,35.26,0,30.06s4.79-9.48,12.79-9.48,13.16,6.6,17.72,14.68,9.2,13,15.49,13c11.73,0,20.9-8.35,29.61-17.45C86.39,19.53,96.4,7.09,112.35,8,130,9.1,136.86,18.36,136.86,24c0,6.42-6.87,12.63-20.75,12.63a39.78,39.78,0,0,1-9.65-1.08Z" transform="translate(0.03 -0.11)" style="fill:url(#u_gradient_61-3)"/><g style="opacity:0.8"><path d="M105.73,10.61c6.43-2.93,13.63-1.59,14.78-1.35A44,44,0,0,0,112.35,8C98,7.19,88.52,17.11,78.9,27.31L88,29.66C94.1,18.7,99.53,13.43,105.73,10.61Z" transform="translate(0.03 -0.11)" style="fill:url(#u_gradient_7)"/></g><g style="mix-blend-mode:multiply"><path d="M46,49.88c-6.29,0-10.47-4.92-15-13L26.7,44.34c4.54,8.78,10.45,16.79,22.05,16.79,13.41,0,23.31-9.12,31.47-19.48l-5.36-9.22C66.14,41.53,57.7,49.88,46,49.88Z" transform="translate(0.03 -0.11)" style="fill:url(#u_gradient_2)"/></g><g style="mix-blend-mode:multiply"><path d="M1.37,30.13c0,3.82,4.74,11,17.52,11-6.52,0-10.48-5.5-11.23-10.89C6.78,23.94,10.21,22,12.8,22.4A7.87,7.87,0,0,0,11,22C5.42,21.43,1.37,26.3,1.37,30.13Z" transform="translate(0.03 -0.11)" style="opacity:0.5;fill:url(#u_gradient_33)"/></g><path d="M11,21.27c6.19.58,9.2,8.46,12.78,16.73l6.69-2.7,0,0c-4.56-8.08-9.73-14.68-17.72-14.68a16.25,16.25,0,0,0-7.86,1.8A12.43,12.43,0,0,1,11,21.27Z" transform="translate(0.03 -0.11)" style="fill:url(#u_gradient_11)"/><path d="M91.92,25.9a27,27,0,0,0,5.92,5.76L100,28.13a19.47,19.47,0,0,1-3-4.74A34.43,34.43,0,0,1,95.67,20c-1.38,1.68-2.71,3.51-4.06,5.46C91.71,25.61,91.81,25.77,91.92,25.9Z" transform="translate(0.03 -0.11)" style="mix-blend-mode:multiply;fill:url(#u_gradient_543)"/><path d="M88.21,2.77h0L85.53,14.65a36.6,36.6,0,0,1,2.23,3.76,57.06,57.06,0,0,1,5.94-4.76C92.4,9.39,90.93,5.31,88.21,2.77Z" transform="translate(0.03 -0.11)" style="mix-blend-mode:multiply;fill:url(#u_gradient_543-2)"/><path d="M34.13,39.73a53.23,53.23,0,0,0,9.54-5.83c-.19-1.77-.37-3.53-.55-5.24a75.73,75.73,0,0,1-11.54,8.47c.61,1,1.23,2,1.86,2.86Z" transform="translate(0.03 -0.11)" style="opacity:0.5;mix-blend-mode:multiply;fill:url(#u_gradient_557)"/><path d="M24.66,40.22a19.64,19.64,0,0,1-5.77.94v1.58a39.25,39.25,0,0,0,6.71-.58L25,41Z" transform="translate(0.03 -0.11)" style="opacity:0.5;mix-blend-mode:multiply;fill:url(#u_gradient_12)"/><g style="opacity:0.5;mix-blend-mode:multiply"><path d="M118.22,35.19c6.18,0,17.31-3.61,17.31-11,0-6.55-9.24-14.24-20.84-14.24a22,22,0,0,0-8.2,1.47h0C118.39,8,127,18.26,126.5,23.89c-.32,3.88-4.57,10-14.54,10a17.09,17.09,0,0,1-5.79-1.07l.29.15v0A28.51,28.51,0,0,0,118.22,35.19Z" transform="translate(0.03 -0.11)" style="fill:url(#u_gradient_547)"/></g><path d="M97,23.39C92.86,14.33,92.7.11,81.12.11c-9.75,0-21.56,13.43-34.63,25.54C36.23,35.14,27,41.16,18.89,41.16v1.58a40.41,40.41,0,0,0,15.24-3C43.27,35.5,50.06,28.41,54.91,24.3c7.24-6.12,15.53-14.4,23.55-13.95s8.77,9.76,14.88,17.28h0L99.09,27A20.21,20.21,0,0,1,97,23.39Z" transform="translate(0.03 -0.11)" style="fill:url(#u_gradient_168)"/></g></g></svg>